{
   "accessors" : 
   [
      {
         "bufferView" : 0,
         "byteOffset" : 0,
         "componentType" : 5126,
         "count" : 501,
         "max" : [ 1.0, 0.10000000149011612, 0.10000000149011612 ],
         "min" : [ -1.1102230411687688e-17, -0.10000000149011612, -0.10000000149011612 ],
         "type" : "VEC3"
      },
      {
         "bufferView" : 1,
         "byteOffset" : 0,
         "componentType" : 5125,
         "count" : 1782,
         "type" : "SCALAR"
      },
      {
         "bufferView" : 2,
         "byteOffset" : 0,
         "componentType" : 5126,
         "count" : 54,
         "max" : [ 1.2396739721298218, 0.025185177102684975, 0.17932924628257751 ],
         "min" : [ 0.93337738513946533, -0.034814827144145966, -0.13827210664749146 ],
         "type" : "VEC3"
      },
      {
         "bufferView" : 3,
         "byteOffset" : 0,
         "componentType" : 5125,
         "count" : 312,
         "type" : "SCALAR"
      },
      {
         "bufferView" : 4,
         "byteOffset" : 0,
         "componentType" : 5126,
         "count" : 501,
         "max" : [ 0.10000000149011612, 1.0, 0.10000000149011612 ],
         "min" : [ -0.10000000149011612, -1.1102230411687688e-17, -0.10000000149011612 ],
         "type" : "VEC3"
      },
      {
         "bufferView" : 5,
         "byteOffset" : 0,
         "componentType" : 5125,
         "count" : 1782,
         "type" : "SCALAR"
      },
      {
         "bufferView" : 6,
         "byteOffset" : 0,
         "componentType" : 5126,
         "count" : 50,
         "max" : [ 0.035200010985136032, 1.2419610023498535, 0.16882050037384033 ],
         "min" : [ -0.024799993261694908, 0.93519800901412964, -0.14856183528900146 ],
         "type" : "VEC3"
      },
      {
         "bufferView" : 7,
         "byteOffset" : 0,
         "componentType" : 5125,
         "count" : 288,
         "type" : "SCALAR"
      },
      {
         "bufferView" : 8,
         "byteOffset" : 0,
         "componentType" : 5126,
         "count" : 501,
         "max" : [ 0.10000000149011612, 0.10000000149011612, 1.0 ],
         "min" : [ -0.10000000149011612, -0.10000000149011612, -1.1102230411687688e-17 ],
         "type" : "VEC3"
      },
      {
         "bufferView" : 9,
         "byteOffset" : 0,
         "componentType" : 5125,
         "count" : 1782,
         "type" : "SCALAR"
      },
      {
         "bufferView" : 10,
         "byteOffset" : 0,
         "componentType" : 5126,
         "count" : 48,
         "max" : [ 0.035416673868894577, 0.13213162124156952, 1.2844501733779907 ],
         "min" : [ -0.024583326652646065, -0.15357570350170135, 0.96693581342697144 ],
         "type" : "VEC3"
      },
      {
         "bufferView" : 11,
         "byteOffset" : 0,
         "componentType" : 5125,
         "count" : 276,
         "type" : "SCALAR"
      },
      {
         "bufferView" : 12,
         "byteOffset" : 0,
         "componentType" : 5126,
         "count" : 501,
         "max" : [ -0.067642770707607269, 1.5400217771530151, 1.5351322889328003 ],
         "min" : [ -0.44742646813392639, 0.90058439970016479, 0.76610398292541504 ],
         "type" : "VEC3"
      },
      {
         "bufferView" : 13,
         "byteOffset" : 0,
         "componentType" : 5125,
         "count" : 1782,
         "type" : "SCALAR"
      },
      {
         "bufferView" : 14,
         "byteOffset" : 0,
         "componentType" : 5126,
         "count" : 124,
         "max" : [ 0.013893522322177887, 1.1234569549560547, 1.7291909456253052 ],
         "min" : [ -0.21579365432262421, 0.73547309637069702, 1.4370309114456177 ],
         "type" : "VEC3"
      },
      {
         "bufferView" : 15,
         "byteOffset" : 0,
         "componentType" : 5125,
         "count" : 744,
         "type" : "SCALAR"
      },
      {
         "bufferView" : 16,
         "byteOffset" : 0,
         "componentType" : 5126,
         "count" : 501,
         "max" : [ 0.50310933589935303, 1.92750084400177, 0.86957269906997681 ],
         "min" : [ -0.42146885395050049, 1.4548183679580688, 0.6697462797164917 ],
         "type" : "VEC3"
      },
      {
         "bufferView" : 17,
         "byteOffset" : 0,
         "componentType" : 5125,
         "count" : 1782,
         "type" : "SCALAR"
      },
      {
         "bufferView" : 18,
         "byteOffset" : 0,
         "componentType" : 5126,
         "count" : 120,
         "max" : [ 0.68308800458908081, 2.1126806735992432, 0.93417644500732422 ],
         "min" : [ 0.3205522894859314, 1.8690599203109741, 0.66536962985992432 ],
         "type" : "VEC3"
      },
      {
         "bufferView" : 19,
         "byteOffset" : 0,
         "componentType" : 5125,
         "count" : 720,
         "type" : "SCALAR"
      },
      {
         "bufferView" : 20,
         "byteOffset" : 0,
         "componentType" : 5126,
         "count" : 501,
         "max" : [ -0.35216173529624939, 2.176715612411499, 1.4767155647277832 ],
         "min" : [ -0.71319222450256348, 1.4631892442703247, 0.76318889856338501 ],
         "type" : "VEC3"
      },
      {
         "bufferView" : 21,
         "byteOffset" : 0,
         "componentType" : 5125,
         "count" : 1782,
         "type" : "SCALAR"
      },
      {
         "bufferView" : 22,
         "byteOffset" : 0,
         "componentType" : 5126,
         "count" : 118,
         "max" : [ -0.63590586185455322, 2.3857104778289795, 1.7267992496490479 ],
         "min" : [ -0.96793621778488159, 2.1292450428009033, 1.4592893123626709 ],
         "type" : "VEC3"
      },
      {
         "bufferView" : 23,
         "byteOffset" : 0,
         "componentType" : 5125,
         "count" : 708,
         "type" : "SCALAR"
      }
   ],
   "asset" : 
   {
      "generator" : "VTK",
      "version" : "2.0"
   },
   "bufferViews" : 
   [
      {
         "buffer" : 0,
         "byteLength" : 6012,
         "byteOffset" : 0
      },
      {
         "buffer" : 1,
         "byteLength" : 7128,
         "byteOffset" : 0
      },
      {
         "buffer" : 2,
         "byteLength" : 648,
         "byteOffset" : 0
      },
      {
         "buffer" : 3,
         "byteLength" : 1248,
         "byteOffset" : 0
      },
      {
         "buffer" : 4,
         "byteLength" : 6012,
         "byteOffset" : 0
      },
      {
         "buffer" : 5,
         "byteLength" : 7128,
         "byteOffset" : 0
      },
      {
         "buffer" : 6,
         "byteLength" : 600,
         "byteOffset" : 0
      },
      {
         "buffer" : 7,
         "byteLength" : 1152,
         "byteOffset" : 0
      },
      {
         "buffer" : 8,
         "byteLength" : 6012,
         "byteOffset" : 0
      },
      {
         "buffer" : 9,
         "byteLength" : 7128,
         "byteOffset" : 0
      },
      {
         "buffer" : 10,
         "byteLength" : 576,
         "byteOffset" : 0
      },
      {
         "buffer" : 11,
         "byteLength" : 1104,
         "byteOffset" : 0
      },
      {
         "buffer" : 12,
         "byteLength" : 6012,
         "byteOffset" : 0
      },
      {
         "buffer" : 13,
         "byteLength" : 7128,
         "byteOffset" : 0
      },
      {
         "buffer" : 14,
         "byteLength" : 1488,
         "byteOffset" : 0
      },
      {
         "buffer" : 15,
         "byteLength" : 2976,
         "byteOffset" : 0
      },
      {
         "buffer" : 16,
         "byteLength" : 6012,
         "byteOffset" : 0
      },
      {
         "buffer" : 17,
         "byteLength" : 7128,
         "byteOffset" : 0
      },
      {
         "buffer" : 18,
         "byteLength" : 1440,
         "byteOffset" : 0
      },
      {
         "buffer" : 19,
         "byteLength" : 2880,
         "byteOffset" : 0
      },
      {
         "buffer" : 20,
         "byteLength" : 6012,
         "byteOffset" : 0
      },
      {
         "buffer" : 21,
         "byteLength" : 7128,
         "byteOffset" : 0
      },
      {
         "buffer" : 22,
         "byteLength" : 1416,
         "byteOffset" : 0
      },
      {
         "buffer" : 23,
         "byteLength" : 2832,
         "byteOffset" : 0
      }
   ],
   "buffers" : 
   [
      {
         "byteLength" : 6012,
         "uri" : "data:application/octet-stream;base64,"
      },
      {
         "byteLength" : 7128,
         "uri" : "data:application/octet-stream;base64,"
      },
      {
         "byteLength" : 648,
         "uri" : "data:application/octet-stream;base64,"
      },
      {
         "byteLength" : 1248,
         "uri" : "data:application/octet-stream;base64,"
      },
      {
         "byteLength" : 6012,
         "uri" : "data:application/octet-stream;base64,"
      },
      {
         "byteLength" : 7128,
         "uri" : "data:application/octet-stream;base64,"
      },
      {
         "byteLength" : 600,
         "uri" : "data:application/octet-stream;base64,"
      },
      {
         "byteLength" : 1152,
         "uri" : "data:application/octet-stream;base64,"
      },
      {
         "byteLength" : 6012,
         "uri" : "data:application/octet-stream;base64,"
      },
      {
         "byteLength" : 7128,
         "uri" : "data:application/octet-stream;base64,"
      },
      {
         "byteLength" : 576,
         "uri" : "data:application/octet-stream;base64,"
      },
      {
         "byteLength" : 1104,
         "uri" : "data:application/octet-stream;base64,"
      },
      {
         "byteLength" : 6012,
         "uri" : "data:application/octet-stream;base64,"
      },
      {
         "byteLength" : 7128,
         "uri" : "data:application/octet-stream;base64,"
      },
      {
         "byteLength" : 1488,
         "uri" : "data:application/octet-stream;base64,"
      },
      {
         "byteLength" : 2976,
         "uri" : "data:application/octet-stream;base64,"
      },
      {
         "byteLength" : 6012,
         "uri" : "data:application/octet-stream;base64,"
      },
      {
         "byteLength" : 7128,
         "uri" : "data:application/octet-stream;base64,"
      },
      {
         "byteLength" : 1440,
         "uri" : "data:application/octet-stream;base64,"
      },
      {
         "byteLength" : 2880,
         "uri" : "data:application/octet-stream;base64,"
      },
      {
         "byteLength" : 6012,
         "uri" : "data:application/octet-stream;base64,"
      },
      {
         "byteLength" : 7128,
         "uri" : "data:application/octet-stream;base64,"
      },
      {
         "byteLength" : 1416,
         "uri" : "data:application/octet-stream;base64,"
      },
      {
         "byteLength" : 2832,
         "uri" : "data:application/octet-stream;base64,"
      }
   ],
   "cameras" : 
   [
      {
         "perspective" : 
         {
            "aspectRatio" : 1.0,
            "yfov" : 0.52359877559829882,
            "zfar" : 9.9074353207442449,
            "znear" : 5.5010886559189185
         },
         "type" : "perspective"
      }
   ],
   "materials" : 
   [
      {
         "pbrMetallicRoughness" : 
         {
            "baseColorFactor" : [ 0.0, 0.0, 1.0, 1.0 ],
            "metallicFactor" : 0.80000000000000004,
            "roughnessFactor" : 0.38461538461538453
         }
      },
      {
         "pbrMetallicRoughness" : 
         {
            "baseColorFactor" : [ 0.0, 0.0, 1.0, 1.0 ],
            "metallicFactor" : 0.0,
            "roughnessFactor" : 1.0
         }
      },
      {
         "pbrMetallicRoughness" : 
         {
            "baseColorFactor" : [ 0.0, 0.0, 1.0, 1.0 ],
            "metallicFactor" : 0.80000000000000004,
            "roughnessFactor" : 0.38461538461538453
         }
      },
      {
         "pbrMetallicRoughness" : 
         {
            "baseColorFactor" : [ 0.0, 0.0, 1.0, 1.0 ],
            "metallicFactor" : 0.0,
            "roughnessFactor" : 1.0
         }
      },
      {
         "pbrMetallicRoughness" : 
         {
            "baseColorFactor" : [ 0.0, 0.0, 1.0, 1.0 ],
            "metallicFactor" : 0.80000000000000004,
            "roughnessFactor" : 0.38461538461538453
         }
      },
      {
         "pbrMetallicRoughness" : 
         {
            "baseColorFactor" : [ 0.0, 0.0, 1.0, 1.0 ],
            "metallicFactor" : 0.0,
            "roughnessFactor" : 1.0
         }
      },
      {
         "pbrMetallicRoughness" : 
         {
            "baseColorFactor" : [ 1.0, 0.0, 0.0, 1.0 ],
            "metallicFactor" : 0.80000000000000004,
            "roughnessFactor" : 0.38461538461538453
         }
      },
      {
         "pbrMetallicRoughness" : 
         {
            "baseColorFactor" : [ 1.0, 0.0, 0.0, 1.0 ],
            "metallicFactor" : 0.0,
            "roughnessFactor" : 1.0
         }
      },
      {
         "pbrMetallicRoughness" : 
         {
            "baseColorFactor" : [ 1.0, 0.0, 0.0, 1.0 ],
            "metallicFactor" : 0.80000000000000004,
            "roughnessFactor" : 0.38461538461538453
         }
      },
      {
         "pbrMetallicRoughness" : 
         {
            "baseColorFactor" : [ 1.0, 0.0, 0.0, 1.0 ],
            "metallicFactor" : 0.0,
            "roughnessFactor" : 1.0
         }
      },
      {
         "pbrMetallicRoughness" : 
         {
            "baseColorFactor" : [ 1.0, 0.0, 0.0, 1.0 ],
            "metallicFactor" : 0.80000000000000004,
            "roughnessFactor" : 0.38461538461538453
         }
      },
      {
         "pbrMetallicRoughness" : 
         {
            "baseColorFactor" : [ 1.0, 0.0, 0.0, 1.0 ],
            "metallicFactor" : 0.0,
            "roughnessFactor" : 1.0
         }
      }
   ],
   "meshes" : 
   [
      {
         "name" : "mesh0",
         "primitives" : 
         [
            {
               "attributes" : 
               {
                  "POSITION" : 0
               },
               "indices" : 1,
               "material" : 0,
               "mode" : 4
            }
         ]
      },
      {
         "name" : "mesh1",
         "primitives" : 
         [
            {
               "attributes" : 
               {
                  "POSITION" : 2
               },
               "indices" : 3,
               "material" : 1,
               "mode" : 4
            }
         ]
      },
      {
         "name" : "mesh2",
         "primitives" : 
         [
            {
               "attributes" : 
               {
                  "POSITION" : 4
               },
               "indices" : 5,
               "material" : 2,
               "mode" : 4
            }
         ]
      },
      {
         "name" : "mesh3",
         "primitives" : 
         [
            {
               "attributes" : 
               {
                  "POSITION" : 6
               },
               "indices" : 7,
               "material" : 3,
               "mode" : 4
            }
         ]
      },
      {
         "name" : "mesh4",
         "primitives" : 
         [
            {
               "attributes" : 
               {
                  "POSITION" : 8
               },
               "indices" : 9,
               "material" : 4,
               "mode" : 4
            }
         ]
      },
      {
         "name" : "mesh5",
         "primitives" : 
         [
            {
               "attributes" : 
               {
                  "POSITION" : 10
               },
               "indices" : 11,
               "material" : 5,
               "mode" : 4
            }
         ]
      },
      {
         "name" : "mesh6",
         "primitives" : 
         [
            {
               "attributes" : 
               {
                  "POSITION" : 12
               },
               "indices" : 13,
               "material" : 6,
               "mode" : 4
            }
         ]
      },
      {
         "name" : "mesh7",
         "primitives" : 
         [
            {
               "attributes" : 
               {
                  "POSITION" : 14
               },
               "indices" : 15,
               "material" : 7,
               "mode" : 4
            }
         ]
      },
      {
         "name" : "mesh8",
         "primitives" : 
         [
            {
               "attributes" : 
               {
                  "POSITION" : 16
               },
               "indices" : 17,
               "material" : 8,
               "mode" : 4
            }
         ]
      },
      {
         "name" : "mesh9",
         "primitives" : 
         [
            {
               "attributes" : 
               {
                  "POSITION" : 18
               },
               "indices" : 19,
               "material" : 9,
               "mode" : 4
            }
         ]
      },
      {
         "name" : "mesh10",
         "primitives" : 
         [
            {
               "attributes" : 
               {
                  "POSITION" : 20
               },
               "indices" : 21,
               "material" : 10,
               "mode" : 4
            }
         ]
      },
      {
         "name" : "mesh11",
         "primitives" : 
         [
            {
               "attributes" : 
               {
                  "POSITION" : 22
               },
               "indices" : 23,
               "material" : 11,
               "mode" : 4
            }
         ]
      }
   ],
   "nodes" : 
   [
      {
         "matrix" : 
         [
            2.2204460492503141e-16,
            -3.3306690738754691e-16,
            1.0000000000000002,
            0.0,
            1.0,
            2.2204460492503131e-16,
            -2.2204460492503131e-16,
            0.0,
            -2.2204460492503128e-16,
            1.0000000000000002,
            3.3306690738754696e-16,
            0.0,
            0.0,
            0.0,
            0.0,
            1.0
         ],
         "mesh" : 0,
         "name" : "mesh0"
      },
      {
         "matrix" : 
         [
            2.2204460492503141e-16,
            -3.3306690738754691e-16,
            1.0000000000000002,
            0.0,
            1.0,
            2.2204460492503131e-16,
            -2.2204460492503131e-16,
            0.0,
            -2.2204460492503128e-16,
            1.0000000000000002,
            3.3306690738754696e-16,
            0.0,
            0.0,
            0.0,
            0.0,
            1.0
         ],
         "mesh" : 1,
         "name" : "mesh1"
      },
      {
         "matrix" : 
         [
            2.2204460492503141e-16,
            -3.3306690738754691e-16,
            1.0000000000000002,
            0.0,
            1.0,
            2.2204460492503131e-16,
            -2.2204460492503131e-16,
            0.0,
            -2.2204460492503128e-16,
            1.0000000000000002,
            3.3306690738754696e-16,
            0.0,
            0.0,
            0.0,
            0.0,
            1.0
         ],
         "mesh" : 2,
         "name" : "mesh2"
      },
      {
         "matrix" : 
         [
            2.2204460492503141e-16,
            -3.3306690738754691e-16,
            1.0000000000000002,
            0.0,
            1.0,
            2.2204460492503131e-16,
            -2.2204460492503131e-16,
            0.0,
            -2.2204460492503128e-16,
            1.0000000000000002,
            3.3306690738754696e-16,
            0.0,
            0.0,
            0.0,
            0.0,
            1.0
         ],
         "mesh" : 3,
         "name" : "mesh3"
      },
      {
         "matrix" : 
         [
            2.2204460492503141e-16,
            -3.3306690738754691e-16,
            1.0000000000000002,
            0.0,
            1.0,
            2.2204460492503131e-16,
            -2.2204460492503131e-16,
            0.0,
            -2.2204460492503128e-16,
            1.0000000000000002,
            3.3306690738754696e-16,
            0.0,
            0.0,
            0.0,
            0.0,
            1.0
         ],
         "mesh" : 4,
         "name" : "mesh4"
      },
      {
         "matrix" : 
         [
            2.2204460492503141e-16,
            -3.3306690738754691e-16,
            1.0000000000000002,
            0.0,
            1.0,
            2.2204460492503131e-16,
            -2.2204460492503131e-16,
            0.0,
            -2.2204460492503128e-16,
            1.0000000000000002,
            3.3306690738754696e-16,
            0.0,
            0.0,
            0.0,
            0.0,
            1.0
         ],
         "mesh" : 5,
         "name" : "mesh5"
      },
      {
         "matrix" : 
         [
            2.2204460492503141e-16,
            -3.3306690738754691e-16,
            1.0000000000000002,
            0.0,
            1.0,
            2.2204460492503131e-16,
            -2.2204460492503131e-16,
            0.0,
            -2.2204460492503128e-16,
            1.0000000000000002,
            3.3306690738754696e-16,
            0.0,
            0.0,
            0.0,
            0.0,
            1.0
         ],
         "mesh" : 6,
         "name" : "mesh6"
      },
      {
         "matrix" : 
         [
            2.2204460492503141e-16,
            -3.3306690738754691e-16,
            1.0000000000000002,
            0.0,
            1.0,
            2.2204460492503131e-16,
            -2.2204460492503131e-16,
            0.0,
            -2.2204460492503128e-16,
            1.0000000000000002,
            3.3306690738754696e-16,
            0.0,
            0.0,
            0.0,
            0.0,
            1.0
         ],
         "mesh" : 7,
         "name" : "mesh7"
      },
      {
         "matrix" : 
         [
            2.2204460492503141e-16,
            -3.3306690738754691e-16,
            1.0000000000000002,
            0.0,
            1.0,
            2.2204460492503131e-16,
            -2.2204460492503131e-16,
            0.0,
            -2.2204460492503128e-16,
            1.0000000000000002,
            3.3306690738754696e-16,
            0.0,
            0.0,
            0.0,
            0.0,
            1.0
         ],
         "mesh" : 8,
         "name" : "mesh8"
      },
      {
         "matrix" : 
         [
            2.2204460492503141e-16,
            -3.3306690738754691e-16,
            1.0000000000000002,
            0.0,
            1.0,
            2.2204460492503131e-16,
            -2.2204460492503131e-16,
            0.0,
            -2.2204460492503128e-16,
            1.0000000000000002,
            3.3306690738754696e-16,
            0.0,
            0.0,
            0.0,
            0.0,
            1.0
         ],
         "mesh" : 9,
         "name" : "mesh9"
      },
      {
         "matrix" : 
         [
            2.2204460492503141e-16,
            -3.3306690738754691e-16,
            1.0000000000000002,
            0.0,
            1.0,
            2.2204460492503131e-16,
            -2.2204460492503131e-16,
            0.0,
            -2.2204460492503128e-16,
            1.0000000000000002,
            3.3306690738754696e-16,
            0.0,
            0.0,
            0.0,
            0.0,
            1.0
         ],
         "mesh" : 10,
         "name" : "mesh10"
      },
      {
         "matrix" : 
         [
            2.2204460492503141e-16,
            -3.3306690738754691e-16,
            1.0000000000000002,
            0.0,
            1.0,
            2.2204460492503131e-16,
            -2.2204460492503131e-16,
            0.0,
            -2.2204460492503128e-16,
            1.0000000000000002,
            3.3306690738754696e-16,
            0.0,
            0.0,
            0.0,
            0.0,
            1.0
         ],
         "mesh" : 11,
         "name" : "mesh11"
      },
      {
         "camera" : 0,
         "matrix" : 
         [
            1.0,
            0.0,
            0.0,
            0.0,
            0.0,
            1.0,
            0.0,
            0.0,
            0.0,
            0.0,
            1.0,
            0.0,
            -0.13586887717247009,
            -1.1160673871636391,
            -8.2342061439849736,
            1.0
         ],
         "name" : "Camera Node"
      },
      {
         "children" : [ 0, 1, 2, 3, 4, 5, 6, 7, 8, 9, 10, 11, 12 ],
         "name" : "Renderer Node"
      }
   ],
   "scene" : 0,
   "scenes" : 
   [
      {
         "name" : "Layer 0",
         "nodes" : [ 13 ]
      }
   ]
}