{
   "accessors" : 
   [
      {
         "bufferView" : 0,
         "byteOffset" : 0,
         "componentType" : 5126,
         "count" : 24,
         "max" : [ 2.5, 2.5, 2.5 ],
         "min" : [ -2.5099999904632568, -2.5099999904632568, -2.5099999904632568 ],
         "type" : "VEC3"
      },
      {
         "bufferView" : 1,
         "byteOffset" : 0,
         "componentType" : 5126,
         "count" : 24,
         "normalized" : false,
         "type" : "VEC2"
      },
      {
         "bufferView" : 2,
         "byteOffset" : 0,
         "componentType" : 5125,
         "count" : 108,
         "type" : "SCALAR"
      },
      {
         "bufferView" : 3,
         "byteOffset" : 0,
         "componentType" : 5126,
         "count" : 9704,
         "max" : [ 1.0996065139770508, 0.53167897462844849, 0.91808497905731201 ],
         "min" : [ -1.0990633964538574, -0.53167933225631714, -0.91840517520904541 ],
         "type" : "VEC3"
      },
      {
         "bufferView" : 4,
         "byteOffset" : 0,
         "componentType" : 5125,
         "count" : 58212,
         "type" : "SCALAR"
      }
   ],
   "asset" : 
   {
      "generator" : "VTK",
      "version" : "2.0"
   },
   "bufferViews" : 
   [
      {
         "buffer" : 0,
         "byteLength" : 288,
         "byteOffset" : 0
      },
      {
         "buffer" : 1,
         "byteLength" : 192,
         "byteOffset" : 0
      },
      {
         "buffer" : 2,
         "byteLength" : 432,
         "byteOffset" : 0
      },
      {
         "buffer" : 3,
         "byteLength" : 116448,
         "byteOffset" : 0
      },
      {
         "buffer" : 4,
         "byteLength" : 232848,
         "byteOffset" : 0
      }
   ],
   "buffers" : 
   [
      {
         "byteLength" : 288,
         "uri" : "data:application/octet-stream;base64,"
      },
      {
         "byteLength" : 192,
         "uri" : "data:application/octet-stream;base64,"
      },
      {
         "byteLength" : 432,
         "uri" : "data:application/octet-stream;base64,"
      },
      {
         "byteLength" : 116448,
         "uri" : "data:application/octet-stream;base64,"
      },
      {
         "byteLength" : 232848,
         "uri" : "data:application/octet-stream;base64,"
      }
   ],
   "cameras" : 
   [
      {
         "perspective" : 
         {
            "aspectRatio" : 1.0,
            "yfov" : 0.52359877559829882,
            "zfar" : 23.290268483475266,
            "znear" : 11.611198837534216
         },
         "type" : "perspective"
      }
   ],
   "materials" : 
   [
      {
         "pbrMetallicRoughness" : 
         {
            "baseColorFactor" : [ 1.0, 1.0, 1.0, 1.0 ],
            "metallicFactor" : 0.80000000000000004,
            "roughnessFactor" : 0.17241379310344826
         }
      },
      {
         "pbrMetallicRoughness" : 
         {
            "baseColorFactor" : [ 0.11764705882352941, 0.56470588235294117, 1.0, 1.0 ],
            "metallicFactor" : 0.80000000000000004,
            "roughnessFactor" : 0.17241379310344826
         }
      }
   ],
   "meshes" : 
   [
      {
         "name" : "mesh0",
         "primitives" : 
         [
            {
               "attributes" : 
               {
                  "POSITION" : 0,
                  "TEXCOORD_0" : 1
               },
               "indices" : 2,
               "material" : 0,
               "mode" : 4
            }
         ]
      },
      {
         "name" : "mesh1",
         "primitives" : 
         [
            {
               "attributes" : 
               {
                  "POSITION" : 3
               },
               "indices" : 4,
               "material" : 1,
               "mode" : 4
            }
         ]
      }
   ],
   "nodes" : 
   [
      {
         "matrix" : 
         [
            2.2204460492503141e-16,
            -3.3306690738754691e-16,
            1.0000000000000002,
            0.0,
            1.0,
            2.2204460492503131e-16,
            -2.2204460492503131e-16,
            0.0,
            -2.2204460492503128e-16,
            1.0000000000000002,
            3.3306690738754696e-16,
            0.0,
            0.0,
            0.0,
            0.0,
            1.0
         ],
         "mesh" : 0,
         "name" : "mesh0"
      },
      {
         "matrix" : 
         [
            2.2204460492503141e-16,
            -3.3306690738754691e-16,
            1.0000000000000002,
            0.0,
            1.0,
            2.2204460492503131e-16,
            -2.2204460492503131e-16,
            0.0,
            -2.2204460492503128e-16,
            1.0000000000000002,
            3.3306690738754696e-16,
            0.0,
            0.0,
            0.0,
            0.0,
            1.0
         ],
         "mesh" : 1,
         "name" : "mesh1"
      },
      {
         "camera" : 0,
         "matrix" : 
         [
            1.0,
            0.0,
            0.0,
            0.0,
            0.0,
            1.0,
            0.0,
            0.0,
            0.0,
            0.0,
            1.0,
            0.0,
            0.004999995231628418,
            0.004999995231628418,
            -16.75878669976348,
            1.0
         ],
         "name" : "Camera Node"
      },
      {
         "children" : [ 0, 1, 2 ],
         "name" : "Renderer Node"
      }
   ],
   "scene" : 0,
   "scenes" : 
   [
      {
         "name" : "Layer 0",
         "nodes" : [ 3 ]
      }
   ]
}