{
   "accessors" : 
   [
      {
         "bufferView" : 0,
         "byteOffset" : 0,
         "componentType" : 5126,
         "count" : 24,
         "max" : [ 2.5, 2.5, 2.5 ],
         "min" : [ -2.5099999904632568, -2.5099999904632568, -2.5099999904632568 ],
         "type" : "VEC3"
      },
      {
         "bufferView" : 1,
         "byteOffset" : 0,
         "componentType" : 5126,
         "count" : 24,
         "normalized" : false,
         "type" : "VEC2"
      },
      {
         "bufferView" : 2,
         "byteOffset" : 0,
         "componentType" : 5125,
         "count" : 108,
         "type" : "SCALAR"
      },
      {
         "bufferView" : 3,
         "byteOffset" : 0,
         "componentType" : 5126,
         "count" : 9704,
         "max" : [ 0.060419682413339615, 1.9992915391921997, 1.4132444858551025 ],
         "min" : [ -0.060428019613027573, -1.9992749691009521, -1.4132444858551025 ],
         "type" : "VEC3"
      },
      {
         "bufferView" : 4,
         "byteOffset" : 0,
         "componentType" : 5125,
         "count" : 58212,
         "type" : "SCALAR"
      },
      {
         "bufferView" : 5,
         "byteOffset" : 0,
         "componentType" : 5126,
         "count" : 2,
         "max" : [ 0.0, 1.0, 0.0 ],
         "min" : [ 0.0, 0.0, 0.0 ],
         "type" : "VEC3"
      },
      {
         "bufferView" : 6,
         "byteOffset" : 0,
         "componentType" : 5126,
         "count" : 2,
         "normalized" : false,
         "type" : "VEC2"
      },
      {
         "bufferView" : 7,
         "byteOffset" : 0,
         "componentType" : 5125,
         "count" : 2,
         "type" : "SCALAR"
      },
      {
         "bufferView" : 8,
         "byteOffset" : 0,
         "componentType" : 5126,
         "count" : 2,
         "max" : [ 0.0, 1.0, 0.0 ],
         "min" : [ 0.0, 0.0, 0.0 ],
         "type" : "VEC3"
      },
      {
         "bufferView" : 9,
         "byteOffset" : 0,
         "componentType" : 5126,
         "count" : 2,
         "normalized" : false,
         "type" : "VEC2"
      },
      {
         "bufferView" : 10,
         "byteOffset" : 0,
         "componentType" : 5125,
         "count" : 2,
         "type" : "SCALAR"
      },
      {
         "bufferView" : 11,
         "byteOffset" : 0,
         "componentType" : 5126,
         "count" : 2,
         "max" : [ 0.0, 1.0, 0.0 ],
         "min" : [ 0.0, 0.0, 0.0 ],
         "type" : "VEC3"
      },
      {
         "bufferView" : 12,
         "byteOffset" : 0,
         "componentType" : 5126,
         "count" : 2,
         "normalized" : false,
         "type" : "VEC2"
      },
      {
         "bufferView" : 13,
         "byteOffset" : 0,
         "componentType" : 5125,
         "count" : 2,
         "type" : "SCALAR"
      },
      {
         "bufferView" : 14,
         "byteOffset" : 0,
         "componentType" : 5126,
         "count" : 17,
         "max" : [ 0.40000000596046448, 0.5, 0.40000000596046448 ],
         "min" : [ -0.40000000596046448, -0.5, -0.40000000596046448 ],
         "type" : "VEC3"
      },
      {
         "bufferView" : 15,
         "byteOffset" : 0,
         "componentType" : 5125,
         "count" : 90,
         "type" : "SCALAR"
      },
      {
         "bufferView" : 16,
         "byteOffset" : 0,
         "componentType" : 5126,
         "count" : 17,
         "max" : [ 0.40000000596046448, 0.5, 0.40000000596046448 ],
         "min" : [ -0.40000000596046448, -0.5, -0.40000000596046448 ],
         "type" : "VEC3"
      },
      {
         "bufferView" : 17,
         "byteOffset" : 0,
         "componentType" : 5125,
         "count" : 90,
         "type" : "SCALAR"
      },
      {
         "bufferView" : 18,
         "byteOffset" : 0,
         "componentType" : 5126,
         "count" : 17,
         "max" : [ 0.40000000596046448, 0.5, 0.40000000596046448 ],
         "min" : [ -0.40000000596046448, -0.5, -0.40000000596046448 ],
         "type" : "VEC3"
      },
      {
         "bufferView" : 19,
         "byteOffset" : 0,
         "componentType" : 5125,
         "count" : 90,
         "type" : "SCALAR"
      }
   ],
   "asset" : 
   {
      "generator" : "VTK",
      "version" : "2.0"
   },
   "bufferViews" : 
   [
      {
         "buffer" : 0,
         "byteLength" : 288,
         "byteOffset" : 0
      },
      {
         "buffer" : 1,
         "byteLength" : 192,
         "byteOffset" : 0
      },
      {
         "buffer" : 2,
         "byteLength" : 432,
         "byteOffset" : 0
      },
      {
         "buffer" : 3,
         "byteLength" : 116448,
         "byteOffset" : 0
      },
      {
         "buffer" : 4,
         "byteLength" : 232848,
         "byteOffset" : 0
      },
      {
         "buffer" : 5,
         "byteLength" : 24,
         "byteOffset" : 0
      },
      {
         "buffer" : 6,
         "byteLength" : 16,
         "byteOffset" : 0
      },
      {
         "buffer" : 7,
         "byteLength" : 8,
         "byteOffset" : 0
      },
      {
         "buffer" : 8,
         "byteLength" : 24,
         "byteOffset" : 0
      },
      {
         "buffer" : 9,
         "byteLength" : 16,
         "byteOffset" : 0
      },
      {
         "buffer" : 10,
         "byteLength" : 8,
         "byteOffset" : 0
      },
      {
         "buffer" : 11,
         "byteLength" : 24,
         "byteOffset" : 0
      },
      {
         "buffer" : 12,
         "byteLength" : 16,
         "byteOffset" : 0
      },
      {
         "buffer" : 13,
         "byteLength" : 8,
         "byteOffset" : 0
      },
      {
         "buffer" : 14,
         "byteLength" : 204,
         "byteOffset" : 0
      },
      {
         "buffer" : 15,
         "byteLength" : 360,
         "byteOffset" : 0
      },
      {
         "buffer" : 16,
         "byteLength" : 204,
         "byteOffset" : 0
      },
      {
         "buffer" : 17,
         "byteLength" : 360,
         "byteOffset" : 0
      },
      {
         "buffer" : 18,
         "byteLength" : 204,
         "byteOffset" : 0
      },
      {
         "buffer" : 19,
         "byteLength" : 360,
         "byteOffset" : 0
      }
   ],
   "buffers" : 
   [
      {
         "byteLength" : 288,
         "uri" : "data:application/octet-stream;base64,"
      },
      {
         "byteLength" : 192,
         "uri" : "data:application/octet-stream;base64,"
      },
      {
         "byteLength" : 432,
         "uri" : "data:application/octet-stream;base64,"
      },
      {
         "byteLength" : 116448,
         "uri" : "data:application/octet-stream;base64,"
      },
      {
         "byteLength" : 232848,
         "uri" : "data:application/octet-stream;base64,"
      },
      {
         "byteLength" : 24,
         "uri" : "data:application/octet-stream;base64,"
      },
      {
         "byteLength" : 16,
         "uri" : "data:application/octet-stream;base64,"
      },
      {
         "byteLength" : 8,
         "uri" : "data:application/octet-stream;base64,"
      },
      {
         "byteLength" : 24,
         "uri" : "data:application/octet-stream;base64,"
      },
      {
         "byteLength" : 16,
         "uri" : "data:application/octet-stream;base64,"
      },
      {
         "byteLength" : 8,
         "uri" : "data:application/octet-stream;base64,"
      },
      {
         "byteLength" : 24,
         "uri" : "data:application/octet-stream;base64,"
      },
      {
         "byteLength" : 16,
         "uri" : "data:application/octet-stream;base64,"
      },
      {
         "byteLength" : 8,
         "uri" : "data:application/octet-stream;base64,"
      },
      {
         "byteLength" : 204,
         "uri" : "data:application/octet-stream;base64,"
      },
      {
         "byteLength" : 360,
         "uri" : "data:application/octet-stream;base64,"
      },
      {
         "byteLength" : 204,
         "uri" : "data:application/octet-stream;base64,"
      },
      {
         "byteLength" : 360,
         "uri" : "data:application/octet-stream;base64,"
      },
      {
         "byteLength" : 204,
         "uri" : "data:application/octet-stream;base64,"
      },
      {
         "byteLength" : 360,
         "uri" : "data:application/octet-stream;base64,"
      }
   ],
   "cameras" : 
   [
      {
         "perspective" : 
         {
            "aspectRatio" : 1.0,
            "yfov" : 0.52359877559829882,
            "zfar" : 23.290268483475266,
            "znear" : 11.611198837534216
         },
         "type" : "perspective"
      },
      {
         "perspective" : 
         {
            "aspectRatio" : 1.0,
            "yfov" : 0.52359877559829882,
            "zfar" : 1000.01,
            "znear" : 0.01
         },
         "type" : "perspective"
      }
   ],
   "materials" : 
   [
      {
         "pbrMetallicRoughness" : 
         {
            "baseColorFactor" : [ 1.0, 1.0, 1.0, 1.0 ],
            "metallicFactor" : 0.80000000000000004,
            "roughnessFactor" : 0.17241379310344826
         }
      },
      {
         "pbrMetallicRoughness" : 
         {
            "baseColorFactor" : [ 0.11764705882352941, 0.56470588235294117, 1.0, 1.0 ],
            "metallicFactor" : 0.80000000000000004,
            "roughnessFactor" : 0.17241379310344826
         }
      },
      {
         "pbrMetallicRoughness" : 
         {
            "baseColorFactor" : [ 1.0, 0.38823529411764707, 0.27843137254901962, 1.0 ],
            "metallicFactor" : 0.0,
            "roughnessFactor" : 1.0
         }
      },
      {
         "pbrMetallicRoughness" : 
         {
            "baseColorFactor" : [ 0.1803921568627451, 0.54509803921568623, 0.3411764705882353, 1.0 ],
            "metallicFactor" : 0.0,
            "roughnessFactor" : 1.0
         }
      },
      {
         "pbrMetallicRoughness" : 
         {
            "baseColorFactor" : [ 0.0, 0.0, 0.80392156862745101, 1.0 ],
            "metallicFactor" : 0.0,
            "roughnessFactor" : 1.0
         }
      },
      {
         "pbrMetallicRoughness" : 
         {
            "baseColorFactor" : [ 1.0, 0.38823529411764707, 0.27843137254901962, 1.0 ],
            "metallicFactor" : 0.0,
            "roughnessFactor" : 1.0
         }
      },
      {
         "pbrMetallicRoughness" : 
         {
            "baseColorFactor" : [ 0.1803921568627451, 0.54509803921568623, 0.3411764705882353, 1.0 ],
            "metallicFactor" : 0.0,
            "roughnessFactor" : 1.0
         }
      },
      {
         "pbrMetallicRoughness" : 
         {
            "baseColorFactor" : [ 0.0, 0.0, 0.80392156862745101, 1.0 ],
            "metallicFactor" : 0.0,
            "roughnessFactor" : 1.0
         }
      }
   ],
   "meshes" : 
   [
      {
         "name" : "mesh0",
         "primitives" : 
         [
            {
               "attributes" : 
               {
                  "POSITION" : 0,
                  "TEXCOORD_0" : 1
               },
               "indices" : 2,
               "material" : 0,
               "mode" : 4
            }
         ]
      },
      {
         "name" : "mesh1",
         "primitives" : 
         [
            {
               "attributes" : 
               {
                  "POSITION" : 3
               },
               "indices" : 4,
               "material" : 1,
               "mode" : 4
            }
         ]
      },
      {
         "name" : "mesh2",
         "primitives" : 
         [
            {
               "attributes" : 
               {
                  "POSITION" : 5,
                  "TEXCOORD_0" : 6
               },
               "indices" : 7,
               "material" : 2,
               "mode" : 1
            }
         ]
      },
      {
         "name" : "mesh3",
         "primitives" : 
         [
            {
               "attributes" : 
               {
                  "POSITION" : 8,
                  "TEXCOORD_0" : 9
               },
               "indices" : 10,
               "material" : 3,
               "mode" : 1
            }
         ]
      },
      {
         "name" : "mesh4",
         "primitives" : 
         [
            {
               "attributes" : 
               {
                  "POSITION" : 11,
                  "TEXCOORD_0" : 12
               },
               "indices" : 13,
               "material" : 4,
               "mode" : 1
            }
         ]
      },
      {
         "name" : "mesh5",
         "primitives" : 
         [
            {
               "attributes" : 
               {
                  "POSITION" : 14
               },
               "indices" : 15,
               "material" : 5,
               "mode" : 4
            }
         ]
      },
      {
         "name" : "mesh6",
         "primitives" : 
         [
            {
               "attributes" : 
               {
                  "POSITION" : 16
               },
               "indices" : 17,
               "material" : 6,
               "mode" : 4
            }
         ]
      },
      {
         "name" : "mesh7",
         "primitives" : 
         [
            {
               "attributes" : 
               {
                  "POSITION" : 18
               },
               "indices" : 19,
               "material" : 7,
               "mode" : 4
            }
         ]
      }
   ],
   "nodes" : 
   [
      {
         "matrix" : 
         [
            2.2204460492503141e-16,
            -3.3306690738754691e-16,
            1.0000000000000002,
            0.0,
            1.0,
            2.2204460492503131e-16,
            -2.2204460492503131e-16,
            0.0,
            -2.2204460492503128e-16,
            1.0000000000000002,
            3.3306690738754696e-16,
            0.0,
            0.0,
            0.0,
            0.0,
            1.0
         ],
         "mesh" : 0,
         "name" : "mesh0"
      },
      {
         "matrix" : 
         [
            2.2204460492503141e-16,
            -3.3306690738754691e-16,
            1.0000000000000002,
            0.0,
            1.0,
            2.2204460492503131e-16,
            -2.2204460492503131e-16,
            0.0,
            -2.2204460492503128e-16,
            1.0000000000000002,
            3.3306690738754696e-16,
            0.0,
            0.0,
            0.0,
            0.0,
            1.0
         ],
         "mesh" : 1,
         "name" : "mesh1"
      },
      {
         "camera" : 0,
         "matrix" : 
         [
            1.0,
            0.0,
            0.0,
            0.0,
            0.0,
            1.0,
            0.0,
            0.0,
            0.0,
            0.0,
            1.0,
            0.0,
            0.004999995231628418,
            0.004999995231628418,
            -16.75878669976348,
            1.0
         ],
         "name" : "Camera Node"
      },
      {
         "children" : [ 0, 1, 2 ],
         "name" : "Renderer Node"
      },
      {
         "matrix" : 
         [
            2.6645352591003761e-16,
            -0.80000000000000027,
            0.0,
            0.0,
            0.80000000000000027,
            2.6645352591003761e-16,
            0.0,
            0.0,
            0.0,
            0.0,
            0.80000000000000004,
            0.0,
            0.0,
            0.0,
            0.0,
            1.0
         ],
         "mesh" : 2,
         "name" : "mesh2"
      },
      {
         "matrix" : 
         [
            0.80000000000000004,
            0.0,
            0.0,
            0.0,
            0.0,
            0.80000000000000004,
            0.0,
            0.0,
            0.0,
            0.0,
            0.80000000000000004,
            0.0,
            0.0,
            0.0,
            0.0,
            1.0
         ],
         "mesh" : 3,
         "name" : "mesh3"
      },
      {
         "matrix" : 
         [
            0.80000000000000004,
            0.0,
            0.0,
            0.0,
            0.0,
            2.6645352591003761e-16,
            0.80000000000000027,
            0.0,
            0.0,
            -0.80000000000000027,
            2.6645352591003761e-16,
            0.0,
            0.0,
            0.0,
            0.0,
            1.0
         ],
         "mesh" : 4,
         "name" : "mesh4"
      },
      {
         "matrix" : 
         [
            6.6613381477509402e-17,
            -0.20000000000000007,
            0.0,
            0.0,
            0.20000000000000007,
            6.6613381477509402e-17,
            0.0,
            0.0,
            0.0,
            0.0,
            0.20000000000000001,
            0.0,
            0.90000000000000002,
            1.9984014443252818e-16,
            0.0,
            1.0
         ],
         "mesh" : 5,
         "name" : "mesh5"
      },
      {
         "matrix" : 
         [
            0.20000000000000001,
            0.0,
            0.0,
            0.0,
            0.0,
            0.20000000000000001,
            0.0,
            0.0,
            0.0,
            0.0,
            0.20000000000000001,
            0.0,
            0.0,
            0.90000000000000002,
            0.0,
            1.0
         ],
         "mesh" : 6,
         "name" : "mesh6"
      },
      {
         "matrix" : 
         [
            0.20000000000000001,
            0.0,
            0.0,
            0.0,
            0.0,
            6.6613381477509402e-17,
            0.20000000000000007,
            0.0,
            0.0,
            -0.20000000000000007,
            6.6613381477509402e-17,
            0.0,
            0.0,
            1.9984014443252818e-16,
            0.90000000000000002,
            1.0
         ],
         "mesh" : 7,
         "name" : "mesh7"
      },
      {
         "camera" : 1,
         "matrix" : 
         [
            1.0,
            0.0,
            0.0,
            0.0,
            0.0,
            1.0,
            0.0,
            0.0,
            0.0,
            0.0,
            1.0,
            0.0,
            0.0,
            0.0,
            -1.0,
            1.0
         ],
         "name" : "Camera Node"
      },
      {
         "children" : [ 4, 5, 6, 7, 8, 9, 10 ],
         "name" : "Renderer Node"
      }
   ],
   "scene" : 0,
   "scenes" : 
   [
      {
         "name" : "Layer 0",
         "nodes" : [ 3, 11 ]
      }
   ]
}